<mxfile host="app.diagrams.net" agent="Mozilla/5.0 (Macintosh; Intel Mac OS X 10_15_7) AppleWebKit/605.1.15 (KHTML, like Gecko) Version/17.5 Safari/605.1.15" version="24.7.13">
  <diagram name="Page-1" id="74e2e168-ea6b-b213-b513-2b3c1d86103e">
    <mxGraphModel dx="1434" dy="827" grid="1" gridSize="10" guides="1" tooltips="1" connect="1" arrows="1" fold="1" page="1" pageScale="1" pageWidth="1100" pageHeight="850" background="none" math="0" shadow="0">
      <root>
        <mxCell id="0" />
        <mxCell id="1" parent="0" />
        <mxCell id="77e6c97f196da883-1" value="Pool" style="swimlane;html=1;childLayout=stackLayout;startSize=20;rounded=0;shadow=0;labelBackgroundColor=none;strokeWidth=1;fontFamily=Verdana;fontSize=8;align=center;" parent="1" vertex="1">
          <mxGeometry x="80" y="40" width="2120" height="2560" as="geometry" />
        </mxCell>
        <mxCell id="77e6c97f196da883-2" value="User Interface (UI)" style="swimlane;html=1;startSize=20;horizontal=1;" parent="77e6c97f196da883-1" vertex="1">
          <mxGeometry y="20" width="240" height="2540" as="geometry" />
        </mxCell>
        <mxCell id="77e6c97f196da883-8" value="&lt;span style=&quot;font-size: 12px;&quot;&gt;&lt;ul&gt;&lt;li&gt;Youtube URL&lt;br&gt;&lt;/li&gt;&lt;li&gt;Source video Language&lt;br&gt;&lt;/li&gt;&lt;li&gt;Segment size&lt;br&gt;&lt;/li&gt;&lt;/ul&gt;&lt;/span&gt;" style="rounded=1;whiteSpace=wrap;html=1;shadow=0;labelBackgroundColor=none;strokeWidth=1;fontFamily=Verdana;fontSize=14;align=left;" parent="77e6c97f196da883-2" vertex="1">
          <mxGeometry x="30" y="210" width="190" height="60" as="geometry" />
        </mxCell>
        <mxCell id="6zJ1nxUpefK5X0n5hMDf-39" value="START" style="ellipse;whiteSpace=wrap;html=1;" parent="77e6c97f196da883-2" vertex="1">
          <mxGeometry x="80" y="40" width="80" height="60" as="geometry" />
        </mxCell>
        <mxCell id="6zJ1nxUpefK5X0n5hMDf-42" value="1. New project&lt;div&gt;Page&lt;/div&gt;" style="rounded=0;whiteSpace=wrap;html=1;" parent="77e6c97f196da883-2" vertex="1">
          <mxGeometry x="60" y="120" width="120" height="60" as="geometry" />
        </mxCell>
        <mxCell id="6zJ1nxUpefK5X0n5hMDf-53" value="2. Transcription Page" style="rounded=0;whiteSpace=wrap;html=1;" parent="77e6c97f196da883-2" vertex="1">
          <mxGeometry x="50" y="570" width="140" height="60" as="geometry" />
        </mxCell>
        <mxCell id="6zJ1nxUpefK5X0n5hMDf-54" value="Verify Transcription(s)" style="rounded=1;whiteSpace=wrap;html=1;" parent="77e6c97f196da883-2" vertex="1">
          <mxGeometry x="45" y="750" width="150" height="60" as="geometry" />
        </mxCell>
        <mxCell id="6zJ1nxUpefK5X0n5hMDf-55" value="Play Audio" style="rounded=1;whiteSpace=wrap;html=1;" parent="77e6c97f196da883-2" vertex="1">
          <mxGeometry x="45" y="660" width="150" height="60" as="geometry" />
        </mxCell>
        <mxCell id="6zJ1nxUpefK5X0n5hMDf-56" value="3. Translation Page" style="rounded=0;whiteSpace=wrap;html=1;" parent="77e6c97f196da883-2" vertex="1">
          <mxGeometry x="43.75" y="1130" width="140" height="60" as="geometry" />
        </mxCell>
        <mxCell id="6zJ1nxUpefK5X0n5hMDf-60" value="&lt;span style=&quot;font-size: 12px;&quot;&gt;&lt;ul&gt;&lt;li&gt;Target translation language&lt;/li&gt;&lt;/ul&gt;&lt;/span&gt;" style="rounded=1;whiteSpace=wrap;html=1;shadow=0;labelBackgroundColor=none;strokeWidth=1;fontFamily=Verdana;fontSize=14;align=left;" parent="77e6c97f196da883-2" vertex="1">
          <mxGeometry x="30" y="1210" width="190" height="60" as="geometry" />
        </mxCell>
        <mxCell id="6zJ1nxUpefK5X0n5hMDf-59" value="Verify Translation" style="rounded=1;whiteSpace=wrap;html=1;" parent="77e6c97f196da883-2" vertex="1">
          <mxGeometry x="43.75" y="1290" width="150" height="60" as="geometry" />
        </mxCell>
        <mxCell id="6zJ1nxUpefK5X0n5hMDf-63" value="4. Summary Page" style="rounded=0;whiteSpace=wrap;html=1;" parent="77e6c97f196da883-2" vertex="1">
          <mxGeometry x="38.75" y="1780" width="140" height="60" as="geometry" />
        </mxCell>
        <mxCell id="6zJ1nxUpefK5X0n5hMDf-64" value="Verify Summary" style="rounded=1;whiteSpace=wrap;html=1;" parent="77e6c97f196da883-2" vertex="1">
          <mxGeometry x="33.75" y="1860" width="150" height="60" as="geometry" />
        </mxCell>
        <mxCell id="6zJ1nxUpefK5X0n5hMDf-65" value="Next?" style="rhombus;whiteSpace=wrap;html=1;rounded=0;shadow=0;labelBackgroundColor=none;strokeWidth=1;fontFamily=Verdana;fontSize=12;align=center;" parent="77e6c97f196da883-2" vertex="1">
          <mxGeometry x="60" y="1950" width="97.5" height="90" as="geometry" />
        </mxCell>
        <mxCell id="6zJ1nxUpefK5X0n5hMDf-66" value="5. Export Result Page" style="rounded=0;whiteSpace=wrap;html=1;" parent="77e6c97f196da883-2" vertex="1">
          <mxGeometry x="40" y="2130" width="140" height="60" as="geometry" />
        </mxCell>
        <mxCell id="6zJ1nxUpefK5X0n5hMDf-67" value="Export all files" style="rounded=1;whiteSpace=wrap;html=1;" parent="77e6c97f196da883-2" vertex="1">
          <mxGeometry x="38.75" y="2220" width="150" height="60" as="geometry" />
        </mxCell>
        <mxCell id="6zJ1nxUpefK5X0n5hMDf-68" value="STOP" style="ellipse;whiteSpace=wrap;html=1;" parent="77e6c97f196da883-2" vertex="1">
          <mxGeometry x="77.5" y="2320" width="80" height="60" as="geometry" />
        </mxCell>
        <mxCell id="au-5CJNhv95WWCOJURfa-1" value="Next" style="triangle;whiteSpace=wrap;html=1;" vertex="1" parent="77e6c97f196da883-2">
          <mxGeometry x="87.5" y="860" width="60" height="80" as="geometry" />
        </mxCell>
        <mxCell id="au-5CJNhv95WWCOJURfa-3" value="Next" style="triangle;whiteSpace=wrap;html=1;" vertex="1" parent="77e6c97f196da883-2">
          <mxGeometry x="85" y="1380" width="60" height="80" as="geometry" />
        </mxCell>
        <mxCell id="6zJ1nxUpefK5X0n5hMDf-44" value="Web Browser" style="swimlane;html=1;startSize=20;horizontal=1;" parent="77e6c97f196da883-1" vertex="1">
          <mxGeometry x="240" y="20" width="240" height="2540" as="geometry" />
        </mxCell>
        <mxCell id="6zJ1nxUpefK5X0n5hMDf-50" value="Store" style="shape=cylinder3;whiteSpace=wrap;html=1;boundedLbl=1;backgroundOutline=1;size=15;" parent="6zJ1nxUpefK5X0n5hMDf-44" vertex="1">
          <mxGeometry x="40" y="60" width="60" height="80" as="geometry" />
        </mxCell>
        <mxCell id="6zJ1nxUpefK5X0n5hMDf-49" value="Cache" style="shape=cylinder3;whiteSpace=wrap;html=1;boundedLbl=1;backgroundOutline=1;size=15;" parent="6zJ1nxUpefK5X0n5hMDf-44" vertex="1">
          <mxGeometry x="140" y="60" width="60" height="80" as="geometry" />
        </mxCell>
        <mxCell id="6zJ1nxUpefK5X0n5hMDf-11" value="Is URL valid?" style="rhombus;whiteSpace=wrap;html=1;rounded=0;shadow=0;labelBackgroundColor=none;strokeWidth=1;fontFamily=Verdana;fontSize=12;align=center;" parent="6zJ1nxUpefK5X0n5hMDf-44" vertex="1">
          <mxGeometry x="30" y="200" width="100" height="90" as="geometry" />
        </mxCell>
        <mxCell id="6zJ1nxUpefK5X0n5hMDf-61" value="Backend Server API Layer" style="swimlane;html=1;startSize=20;horizontal=1;" parent="77e6c97f196da883-1" vertex="1">
          <mxGeometry x="480" y="20" width="240" height="2540" as="geometry" />
        </mxCell>
        <mxCell id="6zJ1nxUpefK5X0n5hMDf-23" value="Translate&lt;div&gt;now?&lt;/div&gt;" style="rhombus;whiteSpace=wrap;html=1;rounded=0;shadow=0;labelBackgroundColor=none;strokeWidth=1;fontFamily=Verdana;fontSize=12;align=center;" parent="6zJ1nxUpefK5X0n5hMDf-61" vertex="1">
          <mxGeometry x="72.5" y="1000" width="95" height="90" as="geometry" />
        </mxCell>
        <mxCell id="6zJ1nxUpefK5X0n5hMDf-24" value="Summarize&lt;div&gt;now?&lt;/div&gt;" style="rhombus;whiteSpace=wrap;html=1;rounded=0;shadow=0;labelBackgroundColor=none;strokeWidth=1;fontFamily=Verdana;fontSize=12;align=center;" parent="6zJ1nxUpefK5X0n5hMDf-61" vertex="1">
          <mxGeometry x="71.25" y="1390" width="97.5" height="90" as="geometry" />
        </mxCell>
        <mxCell id="6zJ1nxUpefK5X0n5hMDf-25" value="Finish&lt;div&gt;now?&lt;/div&gt;" style="rhombus;whiteSpace=wrap;html=1;rounded=0;shadow=0;labelBackgroundColor=none;strokeWidth=1;fontFamily=Verdana;fontSize=12;align=center;" parent="6zJ1nxUpefK5X0n5hMDf-61" vertex="1">
          <mxGeometry x="71.25" y="1780" width="97.5" height="90" as="geometry" />
        </mxCell>
        <mxCell id="au-5CJNhv95WWCOJURfa-2" value="Upload Audio&lt;div&gt;&amp;nbsp;segments to client&lt;/div&gt;" style="shape=step;perimeter=stepPerimeter;whiteSpace=wrap;html=1;fixedSize=1;direction=west;" vertex="1" parent="6zJ1nxUpefK5X0n5hMDf-61">
          <mxGeometry x="20.000000000000004" y="550" width="171.25" height="70" as="geometry" />
        </mxCell>
        <mxCell id="au-5CJNhv95WWCOJURfa-5" value="Upload Transcriptions&lt;div&gt;&amp;nbsp;to client&lt;/div&gt;" style="shape=step;perimeter=stepPerimeter;whiteSpace=wrap;html=1;fixedSize=1;direction=west;" vertex="1" parent="6zJ1nxUpefK5X0n5hMDf-61">
          <mxGeometry x="19.999999999999993" y="640" width="171.25" height="70" as="geometry" />
        </mxCell>
        <mxCell id="au-5CJNhv95WWCOJURfa-6" value="Is valid&amp;nbsp;&lt;div&gt;Youtube URL?&lt;/div&gt;" style="rhombus;whiteSpace=wrap;html=1;" vertex="1" parent="6zJ1nxUpefK5X0n5hMDf-61">
          <mxGeometry x="30" y="270" width="110" height="110" as="geometry" />
        </mxCell>
        <mxCell id="au-5CJNhv95WWCOJURfa-7" value="Temporary&lt;div&gt;Storage&lt;/div&gt;" style="shape=cylinder3;whiteSpace=wrap;html=1;boundedLbl=1;backgroundOutline=1;size=15;" vertex="1" parent="6zJ1nxUpefK5X0n5hMDf-61">
          <mxGeometry x="90" y="440" width="60" height="80" as="geometry" />
        </mxCell>
        <mxCell id="au-5CJNhv95WWCOJURfa-9" value="Upload Audio&lt;div&gt;segments to&amp;nbsp;&lt;/div&gt;&lt;div&gt;Dropbox&lt;/div&gt;" style="shape=step;perimeter=stepPerimeter;whiteSpace=wrap;html=1;fixedSize=1;" vertex="1" parent="6zJ1nxUpefK5X0n5hMDf-61">
          <mxGeometry x="38.75" y="740" width="161.25" height="80" as="geometry" />
        </mxCell>
        <mxCell id="au-5CJNhv95WWCOJURfa-10" value="Upload Transcriptions&lt;div&gt;to Dropbox&lt;/div&gt;" style="shape=step;perimeter=stepPerimeter;whiteSpace=wrap;html=1;fixedSize=1;" vertex="1" parent="6zJ1nxUpefK5X0n5hMDf-61">
          <mxGeometry x="38.75" y="850" width="171.25" height="80" as="geometry" />
        </mxCell>
        <mxCell id="77e6c97f196da883-4" value="Video Converter" style="swimlane;html=1;startSize=20;" parent="77e6c97f196da883-1" vertex="1">
          <mxGeometry x="720" y="20" width="230" height="2540" as="geometry" />
        </mxCell>
        <mxCell id="77e6c97f196da883-12" value="Convert Video to Audio" style="rounded=1;whiteSpace=wrap;html=1;shadow=0;labelBackgroundColor=none;strokeWidth=1;fontFamily=Verdana;fontSize=12;align=center;" parent="77e6c97f196da883-4" vertex="1">
          <mxGeometry x="35" y="390" width="160" height="60" as="geometry" />
        </mxCell>
        <mxCell id="6zJ1nxUpefK5X0n5hMDf-18" value="Extract URL metadata" style="rounded=1;whiteSpace=wrap;html=1;" parent="77e6c97f196da883-4" vertex="1">
          <mxGeometry x="35" y="310" width="160" height="60" as="geometry" />
        </mxCell>
        <mxCell id="6zJ1nxUpefK5X0n5hMDf-19" value="Segment audio into parts" style="rounded=1;whiteSpace=wrap;html=1;" parent="77e6c97f196da883-4" vertex="1">
          <mxGeometry x="30" y="470" width="170" height="60" as="geometry" />
        </mxCell>
        <mxCell id="6zJ1nxUpefK5X0n5hMDf-26" value="Segmented&lt;div&gt;Audio(s)&lt;/div&gt;" style="shape=card;whiteSpace=wrap;html=1;" parent="77e6c97f196da883-4" vertex="1">
          <mxGeometry x="65" y="560" width="70" height="90" as="geometry" />
        </mxCell>
        <mxCell id="77e6c97f196da883-5" value="Speech Recognition Engine (Google)" style="swimlane;html=1;startSize=20;" parent="77e6c97f196da883-1" vertex="1">
          <mxGeometry x="950" y="20" width="210" height="2540" as="geometry" />
        </mxCell>
        <mxCell id="6zJ1nxUpefK5X0n5hMDf-20" value="Transcribe Audio segment into Text" style="rounded=1;whiteSpace=wrap;html=1;" parent="77e6c97f196da883-5" vertex="1">
          <mxGeometry x="45" y="580" width="120" height="60" as="geometry" />
        </mxCell>
        <mxCell id="6zJ1nxUpefK5X0n5hMDf-27" value="Transcripted&lt;div&gt;Text&amp;nbsp;&lt;/div&gt;&lt;div&gt;File(s)&lt;/div&gt;" style="shape=card;whiteSpace=wrap;html=1;" parent="77e6c97f196da883-5" vertex="1">
          <mxGeometry x="56.87" y="680" width="86.25" height="90" as="geometry" />
        </mxCell>
        <mxCell id="77e6c97f196da883-6" value="Translater (GPT)" style="swimlane;html=1;startSize=20;" parent="77e6c97f196da883-1" vertex="1">
          <mxGeometry x="1160" y="20" width="210" height="2540" as="geometry" />
        </mxCell>
        <mxCell id="6zJ1nxUpefK5X0n5hMDf-28" value="Translate text file(s)&lt;div&gt;&amp;nbsp;to target language&lt;/div&gt;" style="rounded=1;whiteSpace=wrap;html=1;" parent="77e6c97f196da883-6" vertex="1">
          <mxGeometry x="20" y="1080" width="170" height="60" as="geometry" />
        </mxCell>
        <mxCell id="6zJ1nxUpefK5X0n5hMDf-29" value="Translated&lt;div&gt;Text File&lt;/div&gt;" style="shape=card;whiteSpace=wrap;html=1;" parent="77e6c97f196da883-6" vertex="1">
          <mxGeometry x="61.88" y="1180" width="86.25" height="90" as="geometry" />
        </mxCell>
        <mxCell id="6zJ1nxUpefK5X0n5hMDf-57" value="Combine all files&lt;div&gt;into one&lt;/div&gt;" style="rounded=1;whiteSpace=wrap;html=1;" parent="77e6c97f196da883-6" vertex="1">
          <mxGeometry x="41.87000000000011" y="860" width="120" height="60" as="geometry" />
        </mxCell>
        <mxCell id="6zJ1nxUpefK5X0n5hMDf-58" value="&lt;div&gt;Combined&lt;/div&gt;&lt;div&gt;Transcription&lt;/div&gt;&lt;div&gt;Text File&lt;/div&gt;" style="shape=card;whiteSpace=wrap;html=1;" parent="77e6c97f196da883-6" vertex="1">
          <mxGeometry x="58.74" y="960" width="86.25" height="90" as="geometry" />
        </mxCell>
        <mxCell id="77e6c97f196da883-7" value="Summariser (GPT)" style="swimlane;html=1;startSize=20;" parent="77e6c97f196da883-1" vertex="1">
          <mxGeometry x="1370" y="20" width="250" height="2540" as="geometry" />
        </mxCell>
        <mxCell id="6zJ1nxUpefK5X0n5hMDf-32" value="Combine all files&lt;div&gt;into one&lt;/div&gt;" style="rounded=1;whiteSpace=wrap;html=1;" parent="77e6c97f196da883-7" vertex="1">
          <mxGeometry x="90" y="1760" width="120" height="60" as="geometry" />
        </mxCell>
        <mxCell id="6zJ1nxUpefK5X0n5hMDf-33" value="Generate Summary" style="rounded=1;whiteSpace=wrap;html=1;" parent="77e6c97f196da883-7" vertex="1">
          <mxGeometry x="100" y="1845" width="120" height="60" as="geometry" />
        </mxCell>
        <mxCell id="6zJ1nxUpefK5X0n5hMDf-34" value="Summary&lt;div&gt;File&lt;/div&gt;" style="shape=card;whiteSpace=wrap;html=1;" parent="77e6c97f196da883-7" vertex="1">
          <mxGeometry x="110" y="1935" width="80" height="100" as="geometry" />
        </mxCell>
        <mxCell id="6zJ1nxUpefK5X0n5hMDf-35" value="Finish&lt;div&gt;now?&lt;/div&gt;" style="rhombus;whiteSpace=wrap;html=1;rounded=0;shadow=0;labelBackgroundColor=none;strokeWidth=1;fontFamily=Verdana;fontSize=12;align=center;" parent="77e6c97f196da883-7" vertex="1">
          <mxGeometry x="110" y="2055" width="97.5" height="90" as="geometry" />
        </mxCell>
        <mxCell id="6zJ1nxUpefK5X0n5hMDf-51" value="Database (PostgreSQL)" style="swimlane;html=1;startSize=20;" parent="77e6c97f196da883-1" vertex="1">
          <mxGeometry x="1620" y="20" width="250" height="2540" as="geometry" />
        </mxCell>
        <mxCell id="6zJ1nxUpefK5X0n5hMDf-52" value="File Storage (Dropbox)" style="swimlane;html=1;startSize=20;" parent="77e6c97f196da883-1" vertex="1">
          <mxGeometry x="1870" y="20" width="250" height="2540" as="geometry" />
        </mxCell>
      </root>
    </mxGraphModel>
  </diagram>
</mxfile>
